<?xml version="1.0" encoding="utf-8" standalone="no"?>
<!DOCTYPE svg PUBLIC "-//W3C//DTD SVG 1.1//EN" "http://www.w3.org/Graphics/SVG/1.1/DTD/svg11-flat-20030114.dtd">
<!-- Created by SVGDeveloper 1.0 -->
<svg width="32" height="32" version="1.1" xmlns="http://www.w3.org/2000/svg" xmlns:xlink="http://www.w3.org/1999/xlink">
<path d="M356.957,0.679l-46.198,14.377v0.03v91.536 c-1.232-2.019-3.285-2.611-5.682-2.611c-2.739,0-6.025,2.375-8.627,6.055c-2.602,3.562-4.52,8.429-4.52,13.296 c0,3.088,0.754,5.7,2.054,7.48c1.233,1.78,3.013,2.85,4.931,2.85c3.012,0,6.436-2.138,9.037-5.699 c2.67-3.562,4.519-8.43,4.519-13.771V25.756l42.792-13.317v80.332c-1.232-2.019-3.287-2.612-5.683-2.612 c-2.739,0-6.025,2.375-8.627,6.056c-2.603,3.561-4.52,8.429-4.52,13.296c0,3.087,0.753,5.699,2.055,7.48 c1.232,1.78,3.013,2.849,4.929,2.849c3.014,0,6.437-2.137,9.039-5.698c2.67-3.563,4.519-8.43,4.519-13.771L356.957,0.679z" transform="matrix(0.322,0,0,0.122,-90.618,7.718)" stroke="#ffffff" xmlns="http://www.w3.org/2000/svg" />
</svg>